<?xml version="1.0" encoding="utf-8"?>
<!--Designed by Vexels.com - 2018 All Rights Reserved - https://vexels.com/terms-and-conditions/-->
<svg version="1.1" id="Layer_1" xmlns="http://www.w3.org/2000/svg" xmlns:xlink="http://www.w3.org/1999/xlink" x="0px" y="0px"
	 viewBox="0 0 1200 1200" enable-background="new 0 0 1200 1200" xml:space="preserve">
<g>
	<g>
		<path fill="#C4C1AE" d="M577.913,80.765c-1.837-0.15-2.756-0.224-3.28-0.723c-0.523-0.499-0.652-1.423-0.908-3.27
			c-0.762-5.484-3.617-9.617-7.464-11.78c-3.847-2.163-8.685-2.355-13.411,0.043c-4.788,2.43-8.046,6.998-9.306,11.995
			s-0.523,10.424,2.68,14.572c0.739,0.957,1.647,1.874,2.652,2.678c1.005,0.804,2.107,1.495,3.234,1.999
			c3.461,1.55,6.984,1.678,10.226,0.521s6.201-3.598,8.534-7.187c0.751-1.155,1.447-2.109,2.339-2.509s1.981-0.245,3.52,0.816"/>
		<path fill="#C4C1AE" d="M568.953,125.068c-1.837-0.15-2.756-0.224-3.28-0.723c-0.523-0.499-0.652-1.423-0.908-3.27
			c-0.762-5.484-3.617-9.617-7.464-11.78c-3.847-2.163-8.685-2.355-13.411,0.043c-4.788,2.43-8.046,6.998-9.306,11.995
			s-0.523,10.424,2.68,14.572c0.739,0.957,1.647,1.874,2.652,2.678c1.005,0.804,2.107,1.495,3.234,1.999
			c3.461,1.55,6.984,1.678,10.226,0.521s6.201-3.598,8.534-7.187c0.751-1.155,1.447-2.109,2.339-2.509s1.981-0.245,3.52,0.816"/>
		<path fill="#C4C1AE" d="M559.992,169.371c-1.837-0.15-2.756-0.224-3.28-0.723s-0.652-1.423-0.908-3.27
			c-0.762-5.484-3.617-9.617-7.464-11.78c-3.847-2.163-8.685-2.355-13.411,0.043c-4.788,2.43-8.046,6.998-9.306,11.995
			c-1.26,4.997-0.523,10.424,2.68,14.572c0.739,0.957,1.647,1.874,2.652,2.678c1.005,0.804,2.107,1.495,3.234,1.999
			c3.461,1.55,6.984,1.678,10.226,0.521c3.241-1.157,6.201-3.598,8.534-7.187c0.751-1.155,1.447-2.109,2.339-2.509
			s1.981-0.245,3.52,0.816"/>
		<path fill="#C4C1AE" d="M549.539,213.673c-1.837-0.15-2.756-0.224-3.28-0.723c-0.524-0.499-0.652-1.423-0.908-3.27
			c-0.762-5.484-3.617-9.617-7.464-11.78c-3.847-2.163-8.685-2.355-13.411,0.043c-4.788,2.43-8.046,6.998-9.306,11.995
			c-1.26,4.997-0.523,10.424,2.68,14.572c0.739,0.957,1.647,1.874,2.652,2.678c1.005,0.804,2.107,1.495,3.234,1.999
			c3.461,1.55,6.984,1.678,10.226,0.521c3.241-1.157,6.201-3.598,8.535-7.187c0.751-1.155,1.447-2.109,2.339-2.509
			c0.892-0.4,1.981-0.245,3.52,0.816"/>
		<path fill="#0F1513" d="M647.606,212.027c-0.544-7.651-1.307-15.278-2.594-22.818c-1.287-7.541-3.099-14.995-5.743-22.302
			c-1.846-5.104-3.732-10.195-5.632-15.282c-1.9-5.087-3.814-10.169-5.716-15.255c-2.028-5.421-2.602-10.439-1.477-15.094
			c1.125-4.654,3.95-8.945,8.718-12.914c4.77-3.97,7.812-8.614,9.49-13.721s1.993-10.677,1.31-16.5
			c-0.886-7.548-4.06-14.032-8.912-18.863c-4.853-4.831-11.385-8.01-18.989-8.949c-8.368-1.033-16.157,0.392-22.577,3.871
			c-6.42,3.479-11.471,9.013-14.361,16.197c-0.677,1.682-1.217,3.413-1.719,5.155c-0.502,1.741-0.966,3.492-1.49,5.213l-0.766,3.467
			l-0.766,3.467c0.057,0.036,0.114,0.071,0.172,0.107s0.116,0.074,0.176,0.116c-1.177,5.226-2.337,10.472-3.519,15.721
			s-2.384,10.501-3.647,15.74c-0.057,0.237-0.129,0.47-0.212,0.701c-0.083,0.231-0.178,0.459-0.282,0.686l-1.223,5.534l-1.223,5.534
			c0.041,0.047,0.082,0.094,0.123,0.14s0.082,0.094,0.123,0.14c-1.295,5.756-2.58,11.514-3.878,17.269
			c-1.298,5.755-2.608,11.508-3.955,17.253c-0.024,0.103-0.061,0.202-0.104,0.301c-0.043,0.099-0.09,0.196-0.136,0.294l-1.323,5.986
			l-1.323,5.986c0.003,0.089,0.008,0.178,0.009,0.266c0,0.088-0.005,0.176-0.023,0.26c-1.123,5.206-2.28,10.405-3.451,15.601
			c-1.172,5.196-2.358,10.389-3.542,15.583c-0.002,0.007-0.004,0.014-0.006,0.021c-0.002,0.007-0.005,0.014-0.006,0.021
			l-1.022,4.622l-1.022,4.622c-0.47,2.103-0.949,4.205-1.423,6.308c-0.473,2.103-0.941,4.207-1.387,6.314
			c-0.839,3.963-0.239,7.607,1.574,10.572c1.813,2.965,4.84,5.251,8.854,6.497c1.023,0.318,2.05,0.624,3.078,0.928
			c1.028,0.304,2.056,0.605,3.083,0.911c4.943,1.475,8.499,3.604,10.809,6.587c2.309,2.982,3.371,6.819,3.325,11.71
			c-0.007,0.745-0.016,1.489-0.026,2.234c-0.01,0.745-0.02,1.489-0.028,2.234h21.745h21.745c-0.003-0.187-0.007-0.374-0.011-0.561
			c-0.004-0.187-0.008-0.374-0.011-0.561c-0.077-4.705,0.036-9.432,0.33-14.15c0.294-4.718,0.768-9.425,1.414-14.09
			c0.765-5.525,2.893-10.111,6.235-13.785s7.895-6.436,13.512-8.31c3.528-1.177,5.581-2.146,6.688-3.713
			C647.698,217.762,647.86,215.597,647.606,212.027z"/>
		<path fill="#2E3331" d="M582.364,267.031c-0.438-5.665-2.283-10.383-5.517-14.133s-7.856-6.53-13.849-8.319l-1.04-0.308
			l-1.04-0.308c-0.668-0.197-1.336-0.394-2.003-0.593c-0.667-0.199-1.333-0.4-1.997-0.607c-1.524-0.473-3.135-1.265-4.227-2.592
			c-1.092-1.327-1.665-3.188-1.112-5.799c0.303-1.431,0.615-2.859,0.933-4.287c0.318-1.428,0.641-2.854,0.964-4.28l0.448-1.988
			l0.448-1.988l0.97-4.387l0.97-4.387l0.015-0.042l0.015-0.042l0.049-0.238l0.049-0.238l0.303-1.331l0.303-1.331
			c1.064-4.668,2.146-9.415,3.219-14.188c1.073-4.772,2.138-9.57,3.167-14.338c0.049-0.228,0.086-0.448,0.113-0.655
			s0.046-0.403,0.059-0.583l1.164-5.265l1.164-5.265c0.065-0.167,0.131-0.351,0.194-0.551c0.063-0.199,0.123-0.414,0.177-0.643
			c1.054-4.493,2.092-9.024,3.115-13.535c1.023-4.511,2.03-9.003,3.02-13.42l1.273-5.669l1.273-5.669l-0.129-0.147l-0.129-0.147
			l0.742-3.357l0.742-3.357c0.128-0.322,0.241-0.641,0.342-0.959c0.101-0.318,0.19-0.636,0.267-0.956
			c0.944-3.916,1.86-7.861,2.754-11.789c0.894-3.928,1.766-7.838,2.625-11.682c0.301-1.351,0.602-2.702,0.904-4.051
			c0.302-1.35,0.604-2.698,0.909-4.045l0.552-2.451l0.552-2.451l-0.181-0.126l-0.181-0.126l0.194-0.877l0.194-0.877
			c0.157-0.521,0.309-1.044,0.458-1.569c0.15-0.525,0.297-1.051,0.444-1.577c0.316-1.131,0.623-2.23,0.948-3.288
			c0.325-1.058,0.668-2.073,1.056-3.037c1.98-4.921,5.281-8.851,9.527-11.55s9.439-4.168,15.202-4.168
			c0.715,0,1.439,0.023,2.169,0.069c0.73,0.046,1.464,0.114,2.199,0.205c5.916,0.731,10.923,3.134,14.623,6.812
			c3.7,3.678,6.092,8.631,6.777,14.461c0.613,5.227,0.272,9.716-1.073,13.605c-1.344,3.889-3.691,7.178-7.088,10.006
			c-5.752,4.788-9.445,10.325-11.037,16.442c-1.591,6.117-1.08,12.813,1.578,19.92l1.298,3.462l1.298,3.462
			c1.447,3.856,2.918,7.777,4.383,11.716c1.465,3.939,2.923,7.895,4.342,11.821c2.656,7.342,4.401,14.851,5.599,22.158
			c1.197,7.307,1.847,14.414,2.313,20.953c0.042,0.584,0.065,1.064,0.077,1.455s0.011,0.696,0.005,0.931
			c-0.243,0.111-0.57,0.249-1.011,0.417s-0.994,0.367-1.689,0.599c-7.162,2.389-12.885,6.018-17.054,10.754
			s-6.783,10.58-7.728,17.401c-0.529,3.823-0.945,7.655-1.246,11.48c-0.301,3.825-0.488,7.643-0.559,11.438h-14.295H582.364z"/>
	</g>
	<path fill="#0F1513" d="M758.159,994.199c-5.987-13.275-11.966-26.553-18.007-39.807s-12.144-26.48-18.377-39.652
		c-4.247-8.973-6.153-17.738-5.863-26.452c0.29-8.714,2.775-17.378,7.313-26.149c4.337-8.383,8.25-16.957,11.461-25.754
		c3.212-8.797,5.722-17.818,7.254-27.093c1.714-10.378,1.657-20.413-0.704-29.904c-2.361-9.491-7.026-18.438-14.529-26.641
		c-2.65-2.898-5.671-5.077-9.048-6.289c-3.377-1.212-7.109-1.457-11.183-0.488c-3.963,0.943-6.817,2.917-8.96,5.507
		c-2.144,2.59-3.578,5.795-4.704,9.201c-0.205,0.62-0.319,1.266-0.423,1.917c-0.103,0.65-0.195,1.304-0.356,1.94
		c-0.858,3.394-1.62,6.818-2.448,10.222s-1.72,6.789-2.838,10.106c-2.717,8.059-9.491,14.682-17.823,19.111
		s-18.22,6.663-27.164,5.942c-2.944-0.237-5.572-0.964-7.753-2.264c-2.181-1.299-3.914-3.171-5.067-5.697
		c-0.831-1.82-1.563-3.755-2.102-5.727c-0.538-1.971-0.882-3.979-0.935-5.943c-0.565-20.959-1.106-41.919-1.633-62.88
		c-0.527-20.96-1.042-41.921-1.555-62.881h-27.52h-27.52c-0.184,12.164-0.369,24.327-0.553,36.491
		c-0.184,12.164-0.368,24.327-0.55,36.491c-0.069,4.596-2.042,8.635-5.229,11.495c-3.188,2.86-7.59,4.541-12.516,4.421
		c-6.467-0.157-12.464-2.277-17.214-5.955c-4.749-3.678-8.251-8.915-9.726-15.305c-1.821-7.886-3.407-15.821-4.922-23.771
		s-2.959-15.914-4.495-23.859c-0.443-2.291-0.771-4.608-1.145-6.913s-0.794-4.598-1.422-6.84c-0.728-2.599-1.958-4.956-3.715-6.818
		c-1.756-1.862-4.039-3.229-6.87-3.848c-4.228-0.924-8.396-1.307-12.412-0.733c-4.016,0.574-7.881,2.105-11.503,5.007
		c-3.332,2.67-6.214,5.57-8.585,8.795c-2.371,3.225-4.233,6.773-5.525,10.738c-3.721,11.42-6.289,22.999-7.712,34.684
		c-1.423,11.685-1.699,23.477-0.835,35.325c0.914,12.543,5.08,27.243,9.723,41.289s9.764,27.437,12.589,37.362
		c4.692,16.484,6.374,32.76,5.254,48.832c-1.12,16.072-5.041,31.941-11.557,47.612c-3.318,7.979-7.037,15.818-10.948,23.58
		c-3.912,7.761-8.016,15.445-12.104,23.113c-7.9,14.818-12.754,29.941-14.65,45.382s-0.832,31.2,3.102,47.288
		c4.914,20.092,15.899,37.598,31.059,50.72s34.496,21.863,56.113,24.422c11.288,1.336,22.629,2.278,33.987,3.096
		c11.357,0.818,22.73,1.511,34.081,2.351c14.896,1.102,29.739,1.375,44.5,0.512s29.437-2.859,43.999-6.295
		c9.381-2.214,18.752-4.626,27.706-7.902s17.493-7.415,25.207-13.081c11.383-8.361,20.017-18.316,26.264-29.527
		c6.247-11.211,10.108-23.676,11.944-37.058c1.47-10.713,0.968-21.167-1.008-31.394S762.581,1004.005,758.159,994.199z"/>
	<path fill="#C4C1AE" d="M748.629,998.497l-1.01-2.24l-1.01-2.24c-5.545-12.298-11.185-24.806-16.904-37.336
		c-5.719-12.53-11.517-25.082-17.379-37.469c-4.886-10.324-7.197-20.546-6.93-30.81c0.268-10.264,3.114-20.571,8.543-31.065
		c4.681-9.049,8.468-17.642,11.402-25.894s5.014-16.165,6.284-23.854c1.599-9.682,1.366-18.431-0.73-26.358
		c-2.096-7.927-6.054-15.033-11.904-21.429c-1.818-1.988-3.473-2.982-4.796-3.479s-2.314-0.497-2.805-0.497
		c-0.392,0-0.797,0.027-1.214,0.079c-0.417,0.053-0.845,0.131-1.283,0.234c-1.014,0.241-2.02,0.6-3.034,1.68
		c-1.013,1.08-2.034,2.88-3.078,6.004c-0.023,0.108-0.041,0.217-0.058,0.326c-0.017,0.109-0.032,0.219-0.049,0.329
		c-0.056,0.357-0.119,0.758-0.2,1.197c-0.081,0.439-0.18,0.915-0.309,1.422c-0.249,0.983-0.488,1.968-0.724,2.955
		c-0.236,0.987-0.467,1.975-0.699,2.963c-0.581,2.473-1.172,4.989-1.834,7.527c-0.662,2.538-1.394,5.098-2.258,7.66
		c-3.536,10.49-11.494,18.565-21.029,24.017c-9.536,5.452-20.65,8.282-30.5,8.282c-0.707,0-1.414-0.014-2.116-0.042
		c-0.702-0.028-1.399-0.069-2.086-0.125c-5.048-0.406-9.48-1.856-13.121-4.234c-3.641-2.378-6.489-5.685-8.371-9.806
		c-1.253-2.745-2.214-5.441-2.878-8.069c-0.664-2.628-1.032-5.188-1.097-7.661c-0.077-2.864-0.154-5.724-0.23-8.583
		c-0.076-2.859-0.152-5.715-0.227-8.572c-20.412,3.423-43.312,9.255-59.196,20.664s-24.753,28.397-17.102,54.13
		c2.987,8.96,5.973,18.667,7.28,28.374s0.933,19.414-2.8,28.374c-6.72,15.68-15.68,35.467-18.667,54.134
		c-2.987,18.667,0,36.214,17.174,47.414c21.654,14.187,45.547,10.827,70.001,5.787c24.454-5.04,49.467-11.76,73.361-4.293
		c8.213,2.987,16.054,8.213,22.774,15.12c6.72,6.907,12.32,15.493,16.053,25.2c0.892,2.341,1.95,4.606,3.159,6.789
		c1.208,2.182,2.567,4.281,4.058,6.289c4.065,5.473,10.476,7.12,16.107,5.711c5.631-1.409,10.482-5.874,11.425-12.626
		c0.006-0.045,0.013-0.091,0.019-0.136c0.006-0.045,0.013-0.091,0.019-0.136c1.185-8.636,0.957-17.509-0.707-26.75
		C756.287,1018.215,753.188,1008.605,748.629,998.497z"/>
	<path fill="#E1DDD4" d="M743.325,1063.102c-1.006,0-2.459-0.142-4.014-0.761c-1.555-0.619-3.212-1.713-4.627-3.619
		c-1.399-1.883-2.655-3.835-3.762-5.84s-2.064-4.064-2.863-6.162c-3.9-10.14-9.727-19.221-16.85-26.594
		s-15.544-13.037-24.632-16.341l-0.098-0.033l-0.098-0.033c-3.804-1.189-7.719-2.073-11.802-2.659
		c-4.083-0.586-8.334-0.875-12.809-0.875c-7.307,0-14.647,0.784-21.942,1.946c-7.295,1.162-14.546,2.703-21.675,4.219
		c-7.023,1.493-13.851,2.944-20.538,4.022c-6.687,1.078-13.233,1.783-19.692,1.783c-6.63,0-12.629-0.747-18.194-2.295
		c-5.565-1.548-10.695-3.898-15.589-7.105c-14.92-9.73-17.849-25.112-15.392-41.9s10.298-34.984,16.916-50.342l0.816-1.897
		l0.816-1.897c4.006-9.616,4.495-19.87,3.194-30.084c-1.301-10.214-4.391-20.388-7.543-29.844
		c-2.121-7.141-2.944-13.679-2.457-19.683c0.487-6.004,2.285-11.472,5.406-16.474c4.716-7.558,12.375-13.951,23.121-19.246
		c10.746-5.295,24.578-9.493,41.638-12.66l0.16,5.98l0.16,5.98c0.074,2.773,0.479,5.629,1.21,8.548
		c0.731,2.918,1.789,5.899,3.168,8.921c2.234,4.893,5.589,8.817,9.859,11.637c4.27,2.82,9.455,4.535,15.35,5.009
		c0.743,0.06,1.498,0.105,2.26,0.135s1.53,0.046,2.3,0.046c10.631,0,22.639-3.097,32.957-9.064s18.947-14.804,22.817-26.285
		c0.897-2.66,1.652-5.294,2.331-7.894c0.679-2.6,1.282-5.165,1.875-7.688l0.026-0.113l0.026-0.113
		c0.221-0.94,0.441-1.88,0.666-2.818c0.224-0.938,0.453-1.876,0.689-2.811c0.152-0.599,0.269-1.159,0.363-1.663
		s0.165-0.953,0.224-1.333l0.02-0.136l0.02-0.136c0.704-2.05,1.272-3.127,1.729-3.706c0.457-0.579,0.803-0.661,1.063-0.723
		c0.268-0.063,0.526-0.112,0.77-0.144c0.244-0.032,0.475-0.049,0.69-0.049c0.247,0,0.744,0,1.468,0.315s1.675,0.944,2.827,2.204
		c5.356,5.856,8.975,12.385,10.886,19.689c1.911,7.305,2.113,15.385,0.633,24.344c-1.231,7.455-3.256,15.142-6.117,23.175
		s-6.557,16.41-11.128,25.245c-5.771,11.157-8.795,22.121-9.074,33.044c-0.279,10.924,2.186,21.808,7.391,32.806
		c5.856,12.376,11.648,24.915,17.362,37.432s11.348,25.012,16.888,37.298l1.009,2.24l1.009,2.24
		c4.382,9.713,7.364,18.925,8.969,27.76c1.605,8.835,1.833,17.292,0.707,25.498l-0.018,0.131l-0.018,0.131
		c-0.444,3.176-2.007,5.486-4.035,7.003C748.121,1062.379,745.628,1063.102,743.325,1063.102L743.325,1063.102L743.325,1063.102z"/>
	<g>
		<path fill="#0F1513" d="M629.897,940.999h-30.632h-30.632c-2.492,0-4.748-1.01-6.382-2.643c-1.633-1.633-2.643-3.889-2.643-6.382
			v-2.266v-2.266c0-2.492,1.01-4.749,2.643-6.382s3.89-2.643,6.382-2.643h30.632h30.632c2.492,0,4.748,1.01,6.382,2.643
			c1.633,1.633,2.643,3.89,2.643,6.382v2.266v2.266c0,2.492-1.01,4.748-2.643,6.382
			C634.646,939.989,632.389,940.999,629.897,940.999z"/>
		<path fill="#2E3331" d="M564.089,930.961v-1.253v-1.253c0-1.535,0.622-2.925,1.628-3.931s2.396-1.628,3.931-1.628h29.618h29.618
			c1.535,0,2.925,0.622,3.931,1.628s1.628,2.396,1.628,3.931v1.253v1.253c0,1.535-0.622,2.925-1.628,3.931s-2.396,1.628-3.931,1.628
			h-29.618h-29.618c-1.535,0-2.925-0.622-3.931-1.628S564.089,932.496,564.089,930.961z"/>
	</g>
	<g>
		<path fill="#0F1513" d="M612.926,986.546h-30.632h-30.632c-2.492,0-4.748-1.01-6.382-2.643c-1.633-1.633-2.643-3.889-2.643-6.382
			v-2.266v-2.266c0-2.492,1.01-4.748,2.643-6.382s3.89-2.643,6.382-2.643h30.632h30.632c2.492,0,4.748,1.01,6.382,2.643
			c1.633,1.633,2.643,3.89,2.643,6.382v2.266v2.266c0,2.492-1.01,4.748-2.643,6.382
			C617.675,985.536,615.419,986.546,612.926,986.546z"/>
		<path fill="#2E3331" d="M547.118,976.508v-1.253v-1.253c0-1.535,0.622-2.925,1.628-3.931s2.396-1.628,3.931-1.628h29.618h29.618
			c1.535,0,2.925,0.622,3.931,1.628s1.628,2.396,1.628,3.931v1.253v1.253c0,1.535-0.622,2.925-1.628,3.931
			c-1.006,1.006-2.396,1.628-3.931,1.628h-29.618h-29.618c-1.535,0-2.925-0.622-3.931-1.628
			C547.74,979.432,547.118,978.043,547.118,976.508z"/>
	</g>
	<g>
		<path fill="#85220D" d="M621.088,829.066h-26.066h-26.066c-1.316,0-2.504-0.575-3.359-1.501s-1.375-2.203-1.355-3.607
			l3.289-282.19l3.289-282.19c0.02-1.374,0.554-2.612,1.406-3.507c0.852-0.895,2.02-1.446,3.308-1.446h19.487h19.487
			c1.288,0,2.456,0.551,3.308,1.446c0.852,0.895,1.386,2.133,1.406,3.507l3.289,282.19l3.289,282.19
			c0.02,1.404-0.5,2.681-1.355,3.607C623.592,828.491,622.404,829.066,621.088,829.066z"/>
		<g>
			<polygon fill="#C4C1AE" points="572.198,1069.572 571.211,1069.563 570.224,1069.554 575.354,662.085 580.484,254.617 
				581.471,254.625 582.457,254.633 577.328,662.102 			"/>
			<polygon fill="#C4C1AE" points="588.071,1069.566 587.084,1069.563 586.098,1069.56 587.808,662.091 589.518,254.622 
				590.505,254.625 591.492,254.628 589.781,662.097 			"/>
			<polygon fill="#C4C1AE" points="601.973,1069.566 600.263,662.097 598.552,254.628 599.539,254.625 600.526,254.622 
				602.236,662.091 603.946,1069.56 602.96,1069.563 			"/>
			<polygon fill="#C4C1AE" points="617.846,1069.572 612.716,662.102 607.586,254.633 608.573,254.625 609.56,254.617 
				614.69,662.085 619.819,1069.554 618.833,1069.563 			"/>
		</g>
	</g>
	<path fill="#C4C1AE" d="M639.17,1073.405h-44.148h-44.148c-0.915,0-1.744-0.371-2.344-0.971s-0.971-1.428-0.971-2.344v-11.262
		v-11.262c0-0.915,0.371-1.744,0.971-2.344s1.428-0.971,2.344-0.971h44.148h44.148c0.915,0,1.744,0.371,2.344,0.971
		c0.6,0.6,0.971,1.428,0.971,2.344v11.262v11.262c0,0.915-0.371,1.744-0.971,2.344
		C640.914,1073.034,640.085,1073.405,639.17,1073.405z"/>
	<path fill="#E1DDD4" d="M654.056,1049.487h-59.034h-59.034c-0.915,0-1.744-0.371-2.344-0.971c-0.6-0.6-0.971-1.428-0.971-2.344
		v-6.401v-6.401c0-0.915,0.371-1.744,0.971-2.344s1.428-0.971,2.344-0.971h59.034h59.034c0.915,0,1.744,0.371,2.344,0.971
		s0.971,1.428,0.971,2.344v6.401v6.401c0,0.915-0.371,1.744-0.971,2.344C655.8,1049.116,654.971,1049.487,654.056,1049.487z"/>
	<g>
		<path fill="#C4C1AE" d="M734.562,1007.626c-0.224,2.179-1.309,4.061-2.884,5.343c-1.575,1.282-3.638,1.962-5.817,1.739
			c-2.179-0.224-4.061-1.309-5.343-2.884c-1.282-1.575-1.962-3.638-1.739-5.817c0.224-2.179,1.309-4.061,2.884-5.343
			c1.575-1.281,3.638-1.962,5.817-1.739c2.179,0.224,4.061,1.309,5.343,2.884C734.105,1003.383,734.785,1005.446,734.562,1007.626z"
			/>
		<path fill="#0F1513" d="M730.563,1002.712c-0.224,2.179-1.309,4.061-2.884,5.343c-1.575,1.281-3.638,1.962-5.817,1.739
			c-2.179-0.224-4.061-1.309-5.343-2.884c-1.281-1.575-1.962-3.638-1.739-5.817s1.309-4.061,2.884-5.343
			c1.575-1.282,3.638-1.962,5.817-1.739c2.179,0.224,4.061,1.309,5.343,2.884C730.105,998.469,730.786,1000.532,730.563,1002.712z"
			/>
	</g>
	<g>
		<path fill="#C4C1AE" d="M718.535,986.441c-0.224,2.179-1.309,4.061-2.884,5.343c-1.575,1.282-3.638,1.962-5.817,1.739
			c-2.179-0.224-4.061-1.309-5.343-2.884c-1.282-1.575-1.962-3.638-1.739-5.817c0.224-2.179,1.309-4.061,2.884-5.343
			c1.575-1.281,3.638-1.962,5.817-1.739c2.179,0.224,4.061,1.309,5.343,2.884C718.078,982.199,718.758,984.262,718.535,986.441z"/>
		<path fill="#0F1513" d="M714.536,981.527c-0.224,2.179-1.309,4.061-2.884,5.343c-1.575,1.282-3.638,1.962-5.817,1.739
			c-2.179-0.224-4.061-1.309-5.343-2.884c-1.281-1.575-1.962-3.638-1.739-5.817s1.309-4.061,2.884-5.343
			c1.575-1.282,3.638-1.962,5.817-1.739c2.179,0.224,4.061,1.309,5.343,2.884C714.078,977.285,714.759,979.348,714.536,981.527z"/>
	</g>
	<g>
		<path fill="#C4C1AE" d="M702.507,965.263c-0.224,2.179-1.309,4.061-2.884,5.343c-1.575,1.281-3.638,1.962-5.817,1.739
			c-2.179-0.224-4.061-1.309-5.343-2.884c-1.281-1.575-1.962-3.638-1.739-5.817s1.309-4.061,2.884-5.343
			c1.575-1.282,3.638-1.962,5.817-1.739c2.179,0.224,4.061,1.309,5.343,2.884C702.05,961.02,702.731,963.084,702.507,965.263z"/>
		<path fill="#0F1513" d="M698.508,960.349c-0.224,2.179-1.309,4.061-2.884,5.343c-1.575,1.281-3.638,1.962-5.817,1.739
			s-4.061-1.309-5.343-2.884c-1.281-1.575-1.962-3.638-1.739-5.817c0.224-2.179,1.309-4.061,2.884-5.343
			c1.575-1.281,3.638-1.962,5.817-1.739c2.179,0.224,4.061,1.309,5.343,2.884C698.051,956.106,698.732,958.17,698.508,960.349z"/>
	</g>
	<path fill="#0F1513" d="M579.665,219.233c0,1.622-0.658,3.091-1.721,4.154s-2.532,1.721-4.154,1.721
		c-1.622,0-3.091-0.658-4.154-1.721s-1.721-2.532-1.721-4.154s0.658-3.091,1.721-4.154s2.532-1.721,4.154-1.721
		c1.622,0,3.091,0.658,4.154,1.721S579.665,217.611,579.665,219.233z"/>
	<path fill="#0F1513" d="M588.332,174.917c0,1.622-0.658,3.091-1.721,4.154c-1.063,1.063-2.532,1.721-4.154,1.721
		c-1.622,0-3.091-0.658-4.154-1.721s-1.721-2.532-1.721-4.154c0-1.622,0.658-3.091,1.721-4.154s2.532-1.721,4.154-1.721
		c1.622,0,3.091,0.658,4.154,1.721C587.674,171.826,588.332,173.294,588.332,174.917z"/>
	<path fill="#0F1513" d="M596.999,132.093c0,1.622-0.657,3.091-1.721,4.154c-1.063,1.063-2.532,1.721-4.154,1.721
		c-1.622,0-3.091-0.658-4.154-1.721s-1.721-2.532-1.721-4.154c0-1.622,0.657-3.091,1.721-4.154c1.063-1.063,2.532-1.721,4.154-1.721
		c1.622,0,3.091,0.658,4.154,1.721C596.341,129.002,596.999,130.471,596.999,132.093z"/>
	<path fill="#0F1513" d="M605.666,89.807c0,1.622-0.658,3.091-1.721,4.154s-2.532,1.721-4.154,1.721s-3.091-0.658-4.154-1.721
		s-1.721-2.532-1.721-4.154c0-1.622,0.658-3.091,1.721-4.154s2.532-1.721,4.154-1.721s3.091,0.658,4.154,1.721
		S605.666,88.185,605.666,89.807z"/>
</g>
</svg>
